<?xml version="1.0" standalone="no"?>
<svg xmlns:xlink="http://www.w3.org/1999/xlink" id="wave" style="transform:rotate(180deg); transition: 0.3s" viewBox="0 0 1440 100" version="1.1" xmlns="http://www.w3.org/2000/svg"><defs><linearGradient id="sw-gradient-0" x1="0" x2="0" y1="1" y2="0"><stop stop-color="rgba(240, 234, 231, 1)" offset="0%"/><stop stop-color="rgba(240, 234, 231, 1)" offset="100%"/></linearGradient></defs><path style="transform:translate(0, 0px); opacity:1" fill="url(#sw-gradient-0)" d="M0,40L21.8,35C43.6,30,87,20,131,16.7C174.5,13,218,17,262,18.3C305.5,20,349,20,393,25C436.4,30,480,40,524,48.3C567.3,57,611,63,655,63.3C698.2,63,742,57,785,50C829.1,43,873,37,916,35C960,33,1004,37,1047,33.3C1090.9,30,1135,20,1178,25C1221.8,30,1265,50,1309,56.7C1352.7,63,1396,57,1440,46.7C1483.6,37,1527,23,1571,28.3C1614.5,33,1658,57,1702,63.3C1745.5,70,1789,60,1833,55C1876.4,50,1920,50,1964,45C2007.3,40,2051,30,2095,36.7C2138.2,43,2182,67,2225,75C2269.1,83,2313,77,2356,61.7C2400,47,2444,23,2487,11.7C2530.9,0,2575,0,2618,11.7C2661.8,23,2705,47,2749,48.3C2792.7,50,2836,30,2880,33.3C2923.6,37,2967,63,3011,73.3C3054.5,83,3098,77,3120,73.3L3141.8,70L3141.8,100L3120,100C3098.2,100,3055,100,3011,100C2967.3,100,2924,100,2880,100C2836.4,100,2793,100,2749,100C2705.5,100,2662,100,2618,100C2574.5,100,2531,100,2487,100C2443.6,100,2400,100,2356,100C2312.7,100,2269,100,2225,100C2181.8,100,2138,100,2095,100C2050.9,100,2007,100,1964,100C1920,100,1876,100,1833,100C1789.1,100,1745,100,1702,100C1658.2,100,1615,100,1571,100C1527.3,100,1484,100,1440,100C1396.4,100,1353,100,1309,100C1265.5,100,1222,100,1178,100C1134.5,100,1091,100,1047,100C1003.6,100,960,100,916,100C872.7,100,829,100,785,100C741.8,100,698,100,655,100C610.9,100,567,100,524,100C480,100,436,100,393,100C349.1,100,305,100,262,100C218.2,100,175,100,131,100C87.3,100,44,100,22,100L0,100Z"/></svg>